<?xml version="1.0"?>
<svg width="500" height="500" xmlns="http://www.w3.org/2000/svg" xmlns:svg="http://www.w3.org/2000/svg" preserveAspectRatio="xMidYMid meet" version="1.0">
 <metadata>Created by potrace 1.16, written by Peter Selinger 2001-2019</metadata>

 <g class="layer">
  <title>Layer 1</title>
  <rect fill="#ffffff" height="524" id="svg_6" stroke="#000000" width="555" x="-32" y="-18"/>
  <g fill="#000000" id="svg_1" transform="matrix(1 0 0 1 0 0) matrix(0.1 0 0 -0.1 0 0)">
   <path d="m0,-2500l0,-2500l2500,0l2500,0l0,2500l0,2500l-2500,0l-2500,0l0,-2500zm3058,1744c7,-2 12,-21 12,-48c0,-41 -2,-45 -27,-48c-28,-3 -28,-4 -25,-63c5,-78 28,-129 90,-198c63,-70 82,-127 82,-251c0,-50 -4,-96 -8,-102c-4,-6 -64,-40 -133,-77c-127,-67 -127,-67 -253,-67c-126,0 -126,0 -137,28c-7,17 -9,84 -6,182c5,177 12,203 81,284c61,71 86,128 86,199c0,52 -2,58 -25,67c-21,8 -25,16 -25,54c0,26 5,46 13,49c13,6 253,-2 275,-9zm-1308,-75c104,-31 208,-163 209,-264c1,-48 -11,-57 -75,-58c-154,-1 -273,95 -303,244c-13,61 -8,85 17,93c22,6 108,-2 152,-15zm1976,-34c35,-14 35,-14 28,-150c-7,-134 -7,-135 22,-197c27,-59 29,-72 32,-216c3,-110 0,-157 -8,-167c-10,-12 -38,-15 -121,-15c-60,0 -109,2 -109,5c0,3 11,23 25,44c40,60 66,139 72,219c7,91 -7,94 -45,9c-34,-74 -112,-195 -157,-243c-32,-34 -32,-34 -173,-34c-77,0 -143,4 -146,8c-2,4 30,28 72,52c119,70 189,142 255,262c52,96 71,122 112,156c10,8 15,30 15,65c1,29 5,83 10,122c12,94 38,113 116,80zm-1580,-70c18,-27 17,-28 -38,-97c-16,-21 -23,-47 -28,-110c-8,-94 0,-113 31,-79c56,60 174,71 259,25c106,-58 164,-164 158,-290c-2,-46 -9,-80 -21,-98c-19,-28 -19,-28 -365,-21c-191,4 -354,11 -363,16c-24,12 -43,90 -35,143c9,57 58,132 114,170c33,24 56,31 105,34c63,4 63,4 59,92c-4,79 -2,93 24,151c15,35 32,70 37,77c15,20 45,14 63,-13zm-961,-275c142,-20 283,-117 349,-240c16,-30 42,-92 57,-139c27,-86 27,-86 1241,-91c883,-4 1220,-8 1238,-16c14,-7 38,-26 55,-43c24,-26 30,-41 33,-94c4,-60 -1,-75 -142,-442c-189,-491 -191,-497 -242,-565c-47,-64 -129,-135 -183,-157c-19,-8 -139,-37 -265,-64c-257,-55 -773,-164 -996,-210c-567,-117 -583,-123 -657,-222c-59,-82 -71,-124 -49,-181c22,-57 95,-130 153,-152c57,-22 104,-9 190,53c82,57 139,83 189,83c97,0 193,-63 214,-142c23,-84 -20,-178 -134,-293c-83,-84 -144,-116 -266,-141c-73,-15 -99,-15 -184,-5c-175,20 -295,77 -396,188c-108,118 -162,256 -162,418c-1,183 44,294 215,522c62,82 127,166 145,188c17,22 32,44 32,50c0,25 -382,1121 -411,1181c-33,66 -108,147 -154,164c-15,6 -113,10 -219,10c-184,0 -195,1 -227,23c-41,27 -79,98 -79,146c0,78 62,152 144,171c46,12 430,11 511,0zm2335,-2246c62,-18 161,-85 200,-134c170,-215 97,-540 -148,-656c-161,-76 -340,-47 -477,78c-215,196 -163,554 99,684c112,55 208,63 326,28z" fill="#ff7f00" id="svg_2"/>
  </g>
 </g>
</svg>