<?xml version="1.0" encoding="utf-8"?>
<!-- Generator: Adobe Illustrator 21.1.0, SVG Export Plug-In . SVG Version: 6.00 Build 0)  -->
<svg version="1.1" id="Capa_1" xmlns="http://www.w3.org/2000/svg" xmlns:xlink="http://www.w3.org/1999/xlink" x="0px" y="0px"
	 width="360px" height="288px" viewBox="0 0 360 288" style="enable-background:new 0 0 360 288;" xml:space="preserve">
<style type="text/css">
	.st0{fill:#053B86;}
	.st1{fill:#F5E120;}
	.st2{fill:#FBF1FC;}
</style>
<g>
	<path class="st0" d="M170.8,269.3c16.1,0.3,32.2-0.3,48.3-2c38.9-4,76.1-13.7,111-32.3c3.4-1.8,5.1-4.1,6.1-7.9
		c4.5-18.1,7.1-36.4,8.8-54.9c3.3-38-0.1-75.3-9-112.2c-0.8-3.5-2.5-5.5-5.5-7.1c-27.2-14.7-56.2-23.7-86.4-28.9
		c-35.8-6.1-71.8-7-108-2.5C99.4,26,64.3,35.6,31.5,53.3c-3.3,1.8-4.8,4.1-5.7,7.6c-4.2,17.8-7.1,35.7-8.7,53.9
		c-3.3,38.3-0.2,76,9,113.3c0.9,3.5,2.4,5.5,5.5,7.1c26.3,14,54.1,23.3,83.3,28.4C133.4,266.9,152,268.9,170.8,269.3z"/>
	<g>
		<path class="st0" d="M170,262.4c15.3,0.3,30.6-0.3,45.9-1.8c36.9-3.7,72.3-12.8,105.4-30.1c3.2-1.7,4.9-3.8,5.8-7.4
			c4.2-16.8,6.8-33.9,8.3-51.1c3.2-35.3-0.1-70.1-8.6-104.5c-0.8-3.2-2.4-5.1-5.3-6.7c-25.8-13.7-53.4-22.1-82.1-26.9
			c-34-5.7-68.2-6.5-102.5-2.4c-34.8,4.2-68.2,13.1-99.3,29.6c-3.1,1.6-4.6,3.8-5.4,7.1c-4,16.5-6.7,33.2-8.2,50.2
			c-3.2,35.7-0.2,70.8,8.6,105.5c0.8,3.2,2.3,5.1,5.2,6.6c25,13,51.4,21.7,79.2,26.5C134.4,260.1,152.1,262,170,262.4z"/>
		<path class="st1" d="M170,262.4c-17.8-0.4-35.5-2.3-53.1-5.3c-27.7-4.8-54.2-13.5-79.2-26.5c-2.9-1.5-4.4-3.4-5.2-6.6
			c-8.7-34.7-11.7-69.8-8.6-105.5c1.5-17,4.3-33.6,8.2-50.2c0.8-3.3,2.3-5.5,5.4-7.1c31.2-16.5,64.5-25.4,99.3-29.6
			c34.3-4.1,68.5-3.4,102.5,2.4c28.7,4.8,56.3,13.2,82.1,26.9c2.9,1.5,4.5,3.4,5.3,6.7c8.5,34.4,11.7,69.1,8.6,104.5
			c-1.5,17.3-4.1,34.3-8.3,51.1c-0.9,3.6-2.5,5.7-5.8,7.4c-33.1,17.3-68.4,26.3-105.4,30.1C200.6,262.1,185.3,262.7,170,262.4z
			 M109.6,109.9c2.2-0.3,4.2,0.1,6.2,0.9c2.9,1.2,3.4,4.8,6.2,6.1c-0.3,7.4,1.2,14.9-2.2,22c4.9,0.9,8.8,0.9,12.7-0.2
			c-1.2-2.7-2.6-5.4-1.7-8.5c2,0.7,3.3,2.4,4.1,4.1c3.9,8.1,8.4,15.9,11.4,24.4c-1.2,0.9-2.5,1.7-3.7,2.6
			c-15.5,11.3-12.9,37.3,4.4,45.5c9.9,4.7,19.6,4.3,29.4,0.1c13,7.6,26.9,13.6,38.7,23.2c3.4,2.8,7.8,3.6,12,4.5
			c2.7,0.6,5.1-0.3,6.5-2.6c3.9-6.4,10-12.6,3.4-20.8c-0.4-0.4-0.2-1.3-0.4-1.9c2.8-0.1,5.6-0.2,8.3-0.3c0.4-1.1-0.4-1.6-0.7-2.3
			c-2.2-6.5,1.7-12.4,8.3-12.4c10.3,0,10.3,0,14.2,10.5c0.6,1.6,0.5,4,2.9,4.1c5.2,0.2,10.4,0.3,16.4,0.4c-3.5-5.1-5.5-9.4-7.1-14
			c-4-11.6-8-23.2-12.2-34.8c-0.5-1.4-0.4-3.6-2.7-3.7c-5.7-0.1-11.4-0.8-16.9,0.2c2.5,8.9-2.9,15.7-5,23.1
			c-3.9-2.5-6.8-5.5-4.8-10.6c0.4-1.2,0-2.3-0.8-3.2c-4-4.6-6.8-11.1-14.8-9.5c-0.5,0.1-1.2-0.4-1.9-0.6c-0.1-0.7-0.3-1.4-0.3-2
			c0.5-8.6,0.5-8.5-7.7-6.3c-4.3,1.1-8.6,1.9-10.6-3.8c-0.6-1.7-2.3-2.3-3.9-3c3.6-0.2,7.3-0.4,10.9-0.6c8.7-0.4,10.6-2.3,11-11.5
			c-9,4-18,6.3-25.7-2c-5.6-6.1-6.3-18-1.6-24.8c7.3-10.6,17.1-8.4,28.1-4c-1.4-4.2-2.5-7.4-3.6-10.6c1.4-0.4,2.8-0.8,4.2-1.4
			c1.7-0.6,3.4-1.7,2.3-3.6c-1.9-3.4-0.3-5.7,1.7-8c1.7-2,2.3-4.4-0.9-4.9c-6.6-1-12.7-4.4-19.9-1.7c-7.7,2.8-7.9,2.1-13-4.6
			c-3.1-4.1-6.2-8.2-9.4-12.2c-5.7-7.2-7.9-6.9-12.1,1.5c-0.4,0.9-0.6,1.9-0.9,2.8c-2,6.6-5,12-12.6,13.7c-9.7,2.2-17,7.8-21.1,17.1
			c-0.2,0.4-0.6,0.7-1,1.1c-5.1,0.3-10.2-1-15.2,0.7c-3.6-0.9-3.8-4.9-6.4-6.7c-6.7-2-13.4,0.1-20.3-0.7c1,3,2.7,5.7,2.5,8.2
			c-1.1,16.9,2.5,33.9-1.6,50.7c6.3,0.1,12.7,0.3,19.1,0.4C107.7,130,109.6,119.8,109.6,109.9z M31.9,182.5
			c1.1,7.1,2.1,13.6,3.2,20.2c1.8,11.2,1.8,11.2,12.8,8.5c2.3-0.6,4.6-1.8,7.6,0.7c-6.4,1.6-12.1,3-17.1,4.3
			c-2.1,6.1,1.3,8.3,5.6,10.1c7.5,3.1,14.9,6.5,22.4,9.7c1.7,0.7,3.5,1.8,5.7,0.6c-3.9-5.2-7.6-10.1-9.9-15.8
			c-1-2.5-2.8-2.4-5.2-1.2c0.9,2.3,1.7,4.6,2.9,7.6c-5.9-1.4-10.7-3.7-15.8-7.1c5.8-1.5,10.9-2.8,15.8-4.1c0.3-2.1,0-3.7-0.4-5.3
			c-1.6-6.4-1.5-6.3-7.8-5.1c-3.5,0.6-7,2.2-11.2,1.5c-1.1-6.8-2.1-13.6-3.2-20.4c2.2-0.2,3.7-1.1,5.5,0.5
			c-0.1,5.4-0.3,11.2-0.4,17.4c4.6-0.8,8.7-1.5,12.7-2.2c1.8-0.3,2.5-1.6,2.1-3.3c-1.8-8.6-2.9-17.3-3.8-26.2
			c-5.9-0.9-11.5,1.1-17.5,0.3c-1.2-6.9-1.3-13.7-1.3-20.5c2.1-0.5,3.5-0.8,4.9,0.6c-0.5,5.6-1,11.3-1.5,17.4
			c3.9-0.1,7.3-0.4,10.5-0.3c3.4,0.1,4.9-1.3,4.4-4.8c-0.9-7.1-0.8-14.3-0.6-21.5c0.1-3.4-1.3-4.2-4.4-4.1
			c-4.3,0.1-8.6,0.5-13.3-0.7c0.2-7-0.1-13.9,0.9-20.9c2.1,0,3.7-0.6,5.2,0.8c-0.6,2.9-1.3,5.8-1.9,8.8c-0.5,2.9-2,5.6-1.1,8.6
			c12.8,3.2,14.6,2,15.1-10.3c0.1-1.3,0.2-2.7,0.2-4c-0.1-4.8,2-9.4,0.8-14.5c-4.8-0.6-9.4-1.3-14-1.6c-3.1-0.2-3.8-1.8-3.2-4.2
			c1-4.5,1.8-8.9,2.4-13.4c0.3-3.2,2.3-5.7,6.3-2.9c-1,5.9-4.5,11.2-4.7,17.4c5.1,1.4,9.8,1.9,14.4,1.6c1.8-9.9,3.5-19.1,5.2-28.2
			c-4.9-2.8-11-1-15.1-6c5-2,9.3-4.6,14.5-5.8c0,3.2-3.6,4.4-2.9,7.4c1.3,0.6,2.7,1.1,4.6,0.8c1.8-6.8,8-11.4,10.8-19
			c-10.6,2.3-18.7,8.1-27.7,11.5c-5.2,2-6.6,5.4-5.8,10.4c4.5,1,8.7,2.5,13.1,2.8c2.2,0.1,3.2,1.2,2.8,3.6
			c-1.1,5.7-2.1,11.4-3.1,17.1c-1.9,0.4-3.7,0.7-4.8-0.8c-1-1.5,0.2-2.8,0.9-4.3C49,90.4,51,86.4,50,82c-3.6-1.7-7.4-1.5-10.9-2.6
			c-1.8-0.6-2.7,0.1-3,1.6c-1.4,9.5-3.4,18.9-3.9,28.7c5.8,0.8,11.3,1.6,17.2,2.5c-0.6,6.9-1.1,13.5-1.6,19.9c-2,0.3-3.5,0.7-5-0.5
			c1.1-5.5,2.3-11.1,3.5-16.9c-5-1.3-9.7-2.1-14.6-1.3c-1.7,9.3-1.4,18.5-1.9,27.6c-0.2,2.7,1.2,3.4,3.6,3.4
			c4.6,0.1,9.3-0.4,14.2,0.5c0.2,5.7,0.3,11.1,0.6,16.6c0.2,4-1.6,4.4-4.9,3.2c-0.4-5.8,2-11.3,1-17.3c-4-0.1-7.8-0.2-11.5-0.3
			c-1.9,0-2.8,1-2.8,2.8c0.3,9.6-0.1,19.2,2.1,29c5.7-0.5,11.1-1.3,16.4-0.2c2.2,5.3,1.1,11.1,2.9,16.3c0.4,1.2,0.3,2.9-1.4,3.3
			c-1.9,0.4-2.4-0.8-2.8-2.5c-0.4-1.6-0.7-3.2-0.8-4.9c0-3.4,0.7-6.9-0.2-10.5C41.5,180.6,36.9,181.1,31.9,182.5z M323.6,172.7
			c-5.1-0.1-9.4,0-13.7-0.4c-2.8-0.2-4.4,0.4-4.7,3.4c-0.9,8.4-2,16.8-3.1,25.9c4.7,0.5,9.2,2.2,14.3,2c1.3-5.9-0.3-11.8,0.6-17.4
			c1.6-0.7,3-0.7,4.5,0.3c0.5,6.5-1.9,12.7-2.6,19.1c-0.3,2.5-2.7,2.6-4.3,1.9c-2.7-1.2-5.8-0.5-8.5-2.3c-1.5-1-4.4-2-5.3,1.2
			c-0.9,3-2.2,5.9-1.4,9.3c5,1.3,10,2.6,15,3.8c0,0.4,0,0.8,0,1.2c-5.4,1-9.7,4.6-15.1,6.4c0.1-3.3,3-5.1,2.2-8
			c-2.3-1.4-3.8-0.8-4.7,1.6c-0.6,1.5-1.3,3.1-2.2,4.5c-2.3,3.7-4.7,7.3-7.3,11.3c1.2,0.2,1.7,0.5,2.1,0.3
			c9.9-3.6,19.4-7.8,28.8-12.6c2.9-1.5,2.8-4.5,2.6-7c-0.2-2.6-2.9-2.1-4.7-2.5c-1.3-0.3-3,0.3-3.8,0c-2.7-1.1-7,0-8.5-4.9
			c6.6,0.8,12.1,2.7,18.1,2.3c2.9-9.6,4.3-19.7,5-29.9c-4.9-2.1-9.8-1-14.7-1.9c-0.5,6.1,1.1,12.1-0.2,17.9c-4,0.4-4.9-1.5-4.4-4.8
			c0.7-4.1,2.2-8.3,1.8-12.2c-0.4-3.6,1-3.5,3.4-3.5c4.9,0,9.7,0.3,14.9,1.1c0.6-10.9,2.2-21,1.4-31.5c-5-0.5-9.6-0.6-14.4-0.1
			c-0.9,6.1,1.9,11.9,1.2,17.7c-1.9,0.7-3.3,0.3-4.6-0.6c0.1-6.5,0.3-12.9,0.5-19.8c4.9-0.1,9.5-0.3,14.1-0.4c1.9,0,3.4-0.4,3.3-2.6
			c-0.3-9.6,0-19.2-2.1-28.7c-5.2,0-9.9,0.1-14.6,1.5c0.6,6.1,3.6,11.4,3.3,17.3c-1.6,0.6-2.9,1.3-4.6,0.1c-0.5-6.5-1-13-1.6-19.9
			c5.9-0.8,11.4-1.5,17-2.3c0.2-10.3-4.1-19.4-4.5-29c-0.1-1.9-1.9-2.1-3.5-1.7c-3.7,0.8-7.4,1.6-11.5,2.5c1.6,6,4.8,11.2,5.4,17
			c-1.6,1.1-2.9,1.5-4.7,0.5c-1.2-6.3-2.4-12.8-3.6-19.4c5.7-1.9,11.6-1.8,16.4-4.5c0.6-5.4-1.9-8.1-6.3-9.8
			c-6.3-2.5-12.3-5.7-18.6-8.2c-2.5-1-5-3-8.9-2.1c4.2,5.6,7.8,10.9,10.6,16.7c1.3,2.6,2.9,0.9,4.6,0.1c-1.1-2.5-2.1-4.8-3.4-7.7
			c5.9,2,11.1,4.1,16.3,7.6c-5.8,1.5-10.8,2.8-16.2,4.2c1.8,9.8,3.6,19.2,5.4,28.8c5.1-0.2,9.8-0.5,14.5-1.9
			c-0.8-6.3-3.9-11.6-5-17.3c3.4-1.7,5.2-1.1,5.6,2.6c0.6,4.8,1.5,9.5,2.3,14.3c0.4,2.2-0.5,3.4-2.9,3.6c-3.6,0.3-7.2,1-10.9,1.4
			c-2.4,0.3-3.7,1.5-3.4,3.9c0.9,8.4,1.8,16.8,2.7,25.4c4.8,1.8,9.6-0.1,14.8,0.1c-1.2-6.1-2.4-11.9-3.6-17.8c3.4-1.7,5.2-1,5.4,2.8
			c0.3,5.6,0.6,11.3,0.9,17c-4.9,2.3-9.7,1.4-14.4,0.9c-2.1-0.2-3.3,0.1-3.4,2.1c-0.3,9.2-0.5,18.5-0.7,28.2
			c5.3-0.6,9.8,1.6,14.8,0.4c-0.5-6-1-11.9-1.5-17.7c2-0.8,3.3-1.1,4.6,0C323.9,159.2,323.8,165.8,323.6,172.7z M235.1,139.7
			c-0.8-1.7-1.1-2.3-1.3-2.9c-2.1-6.2,1.9-12.2,8.3-12.3c10.2-0.2,10.2-0.2,13.7,9.3c0.4,1.1,0.8,2.2,1.1,3.3c0.3,1.2,1,2.1,2.4,2.2
			c5.2,0.1,10.4,0.2,16.5,0.4c-2.1-3.3-3.9-5.5-4.8-8.2c-4.8-13.6-9.7-27.2-14.6-40.8c-0.6-1.7-0.8-3.6-3.3-3.7
			c-5.5-0.1-11.1-0.2-18.1-0.4c3.7,3.8,3,6.7,1.9,9.9c-2.7,7.5-5.3,15-7.8,22.6c-2.2,6.5-4.4,13.1-6.8,20.3c2.6,0.1,4.4,0.1,6.3,0.1
			C230.3,139.6,232.3,139.6,235.1,139.7z M112.2,150c1.3,5.1-1.4,8.5-4,11.9c-3.1,4.1-6.3,8.2-9.6,12.1c-2.8,3.3-2.1,6.4,0.1,9.4
			c4,5.5,8.2,10.8,12.3,16.3c2.3,3.1,4.8,5.9,8.1,8c5.5,3.4,10.4,2.6,14.9-2.6c-7.1-7.9-12.9-16.9-19.3-25.4
			c-4.9-6.5-4.9-6.6,0.3-13.1c4.3-5.4,8.5-10.8,13.3-17C122.3,149.7,117.5,149.9,112.2,150z M78.9,150c3.2,8.1,3.1,50.8-0.1,59
			c4.1,0.1,8,0,11.9,0.3c4.1,0.3,5.6-0.9,5.4-5.3c-0.3-8.5-0.1-16.9,0-25.4c0.1-9.6,0.4-19.1,0.6-29.1
			C89.8,149.6,84.4,149.1,78.9,150z M262,87.4c2.2,1,5.2,1.5,5.6,0.1c0.5-1.7,2.6-3.5,0.9-5.6c-1.8-2.2-4.2-1.1-6.3-1.3
			C262.1,82.9,262.1,85,262,87.4z"/>
		<path class="st0" d="M31.9,182.5c4.9-1.4,9.5-1.8,14.3-2c0.9,3.6,0.2,7.1,0.2,10.5c0,1.7,0.3,3.2,0.8,4.9c0.4,1.7,0.9,2.9,2.8,2.5
			c1.7-0.4,1.8-2.1,1.4-3.3c-1.8-5.3-0.7-11-2.9-16.3c-5.3-1.1-10.7-0.3-16.4,0.2c-2.2-9.7-1.8-19.4-2.1-29
			c-0.1-1.8,0.9-2.8,2.8-2.8c3.8,0.1,7.6,0.2,11.5,0.3c1.1,6-1.3,11.5-1,17.3c3.3,1.3,5.1,0.9,4.9-3.2c-0.3-5.5-0.4-10.9-0.6-16.6
			c-4.9-1-9.6-0.5-14.2-0.5c-2.5,0-3.8-0.8-3.6-3.4c0.5-9.1,0.3-18.3,1.9-27.6c5-0.8,9.6,0,14.6,1.3c-1.2,5.8-2.4,11.4-3.5,16.9
			c1.5,1.3,3,0.9,5,0.5c0.5-6.5,1.1-13,1.6-19.9c-5.9-0.9-11.4-1.6-17.2-2.5c0.5-9.9,2.4-19.3,3.9-28.7c0.2-1.4,1.2-2.1,3-1.6
			c3.5,1.1,7.3,0.9,10.9,2.6c0.9,4.4-1,8.4-2.8,12.2c-0.7,1.5-1.9,2.8-0.9,4.3c1.1,1.5,2.9,1.2,4.8,0.8c1-5.7,2-11.4,3.1-17.1
			c0.5-2.4-0.6-3.4-2.8-3.6c-4.5-0.3-8.7-1.8-13.1-2.8c-0.8-5,0.6-8.4,5.8-10.4c9-3.5,17.1-9.2,27.7-11.5c-2.8,7.5-9,12.1-10.8,19
			c-1.9,0.3-3.3-0.2-4.6-0.8c-0.7-3,2.9-4.2,2.9-7.4c-5.2,1.2-9.4,3.8-14.5,5.8c4.2,5,10.3,3.1,15.1,6c-1.7,9-3.4,18.3-5.2,28.2
			c-4.6,0.3-9.3-0.2-14.4-1.6c0.3-6.2,3.7-11.5,4.7-17.4c-4-2.8-5.9-0.3-6.3,2.9c-0.5,4.6-1.4,9-2.4,13.4c-0.5,2.4,0.1,4.1,3.2,4.2
			c4.6,0.2,9.2,1,14,1.6c1.2,5.1-0.9,9.7-0.8,14.5c0,1.3-0.1,2.7-0.2,4c-0.5,12.3-2.3,13.5-15.1,10.3c-0.9-3,0.6-5.8,1.1-8.6
			c0.6-2.9,1.2-5.8,1.9-8.8c-1.5-1.3-3.1-0.8-5.2-0.8c-1,7-0.7,13.9-0.9,20.9c4.7,1.1,9,0.8,13.3,0.7c3.1-0.1,4.6,0.7,4.4,4.1
			c-0.3,7.2-0.3,14.3,0.6,21.5c0.4,3.5-1,4.8-4.4,4.8c-3.3-0.1-6.6,0.2-10.5,0.3c0.5-6.1,1-11.8,1.5-17.4c-1.4-1.4-2.9-1.1-4.9-0.6
			c0.1,6.8,0.1,13.6,1.3,20.5c6,0.8,11.6-1.2,17.5-0.3c0.9,8.9,2,17.6,3.8,26.2c0.4,1.7-0.3,3-2.1,3.3c-4,0.7-8.1,1.4-12.7,2.2
			c0.1-6.3,0.3-12,0.4-17.4c-1.9-1.6-3.3-0.7-5.5-0.5c1.1,6.9,2.1,13.6,3.2,20.4c4.3,0.6,7.7-0.9,11.2-1.5c6.3-1.1,6.3-1.2,7.8,5.1
			c0.4,1.6,0.8,3.2,0.4,5.3c-4.9,1.3-9.9,2.6-15.8,4.1c5.2,3.4,9.9,5.8,15.8,7.1c-1.1-3-2-5.3-2.9-7.6c2.3-1.2,4.2-1.2,5.2,1.2
			c2.4,5.7,6,10.7,9.9,15.8c-2.3,1.2-4,0.1-5.7-0.6c-7.5-3.2-14.9-6.6-22.4-9.7c-4.4-1.8-7.7-4-5.6-10.1c5.1-1.3,10.7-2.7,17.1-4.3
			c-3-2.5-5.4-1.2-7.6-0.7c-11,2.7-11,2.7-12.8-8.5C34.1,196.1,33.1,189.5,31.9,182.5z"/>
		<path class="st0" d="M323.6,172.7c0.2-6.9,0.3-13.5,0.5-20.3c-1.2-1.1-2.6-0.8-4.6,0c0.5,5.7,1,11.6,1.5,17.7
			c-5.1,1.1-9.5-1-14.8-0.4c0.2-9.7,0.4-19,0.7-28.2c0.1-2,1.3-2.3,3.4-2.1c4.7,0.5,9.5,1.4,14.4-0.9c-0.3-5.7-0.6-11.4-0.9-17
			c-0.2-3.8-2-4.5-5.4-2.8c1.2,5.9,2.3,11.7,3.6,17.8c-5.2-0.1-9.9,1.7-14.8-0.1c-0.9-8.6-1.8-17-2.7-25.4c-0.3-2.5,1-3.7,3.4-3.9
			c3.6-0.4,7.2-1.1,10.9-1.4c2.4-0.2,3.3-1.3,2.9-3.6c-0.8-4.8-1.7-9.5-2.3-14.3c-0.5-3.8-2.2-4.4-5.6-2.6c1.1,5.7,4.2,11,5,17.3
			c-4.7,1.5-9.4,1.8-14.5,1.9c-1.8-9.6-3.6-19-5.4-28.8c5.3-1.4,10.4-2.7,16.2-4.2c-5.3-3.5-10.4-5.6-16.3-7.6
			c1.3,2.8,2.3,5.2,3.4,7.7c-1.7,0.8-3.3,2.5-4.6-0.1c-2.9-5.8-6.4-11.1-10.6-16.7c3.9-0.9,6.4,1,8.9,2.1c6.3,2.5,12.3,5.7,18.6,8.2
			c4.4,1.8,6.9,4.4,6.3,9.8c-4.8,2.7-10.7,2.6-16.4,4.5c1.2,6.7,2.4,13.1,3.6,19.4c1.8,1,3.2,0.6,4.7-0.5c-0.7-5.8-3.8-11-5.4-17
			c4.1-0.9,7.8-1.8,11.5-2.5c1.6-0.3,3.4-0.2,3.5,1.7c0.4,9.6,4.8,18.7,4.5,29c-5.6,0.8-11.1,1.5-17,2.3c0.5,6.9,1.1,13.4,1.6,19.9
			c1.7,1.2,3,0.5,4.6-0.1c0.3-5.9-2.7-11.2-3.3-17.3c4.7-1.3,9.4-1.5,14.6-1.5c2.1,9.5,1.8,19.2,2.1,28.7c0.1,2.3-1.5,2.6-3.3,2.6
			c-4.6,0.1-9.2,0.2-14.1,0.4c-0.2,6.9-0.3,13.3-0.5,19.8c1.3,0.9,2.7,1.3,4.6,0.6c0.6-5.8-2.2-11.6-1.2-17.7
			c4.7-0.5,9.3-0.4,14.4,0.1c0.8,10.4-0.8,20.6-1.4,31.5c-5.1-0.8-10-1.2-14.9-1.1c-2.4,0-3.8-0.1-3.4,3.5c0.4,4-1.1,8.2-1.8,12.2
			c-0.6,3.3,0.4,5.2,4.4,4.8c1.3-5.8-0.3-11.8,0.2-17.9c4.9,0.8,9.8-0.2,14.7,1.9c-0.8,10.2-2.1,20.3-5,29.9
			c-6,0.4-11.4-1.5-18.1-2.3c1.5,4.9,5.8,3.8,8.5,4.9c0.9,0.4,2.6-0.3,3.8,0c1.8,0.4,4.5-0.1,4.7,2.5c0.2,2.5,0.3,5.6-2.6,7
			c-9.3,4.8-18.9,9-28.8,12.6c-0.4,0.1-0.9-0.1-2.1-0.3c2.6-4,5-7.6,7.3-11.3c0.9-1.4,1.6-2.9,2.2-4.5c1-2.4,2.4-3,4.7-1.6
			c0.8,2.9-2.1,4.7-2.2,8c5.4-1.8,9.7-5.4,15.1-6.4c0-0.4,0-0.8,0-1.2c-5-1.3-10-2.6-15-3.8c-0.8-3.4,0.6-6.4,1.4-9.3
			c0.9-3.2,3.8-2.2,5.3-1.2c2.7,1.8,5.8,1.2,8.5,2.3c1.6,0.7,4,0.7,4.3-1.9c0.7-6.4,3.1-12.6,2.6-19.1c-1.5-1.1-2.9-1-4.5-0.3
			c-1,5.6,0.6,11.5-0.6,17.4c-5.1,0.2-9.6-1.5-14.3-2c1.1-9.1,2.2-17.5,3.1-25.9c0.3-3.1,1.9-3.7,4.7-3.4
			C314.2,172.7,318.5,172.6,323.6,172.7z"/>
		<path class="st0" d="M176.6,206.8c-9.8,4.1-19.6,4.5-29.4-0.1c-17.3-8.2-19.9-34.1-4.4-45.5c1.2-0.9,2.4-1.7,3.7-2.6
			c1.1-0.5,2.1-1.1,3.2-1.6c2.4-0.5,4.8-1,7.3-1.5c14.5-2.9,29.5,5.4,32.6,18.6c2.8,11.8,0.4,22.4-9.2,30.6
			C179.1,205.4,177.8,206.1,176.6,206.8z M151.5,169.6c-4.5,7.5-4.2,15.4-1.5,23.3c2.6,7.5,9.2,10.1,16.8,7c1.3-0.4,2.7-0.8,3.3-2.3
			c6.4-6.9,5.4-15.1,3.7-23.3c-1.9-9.3-10.7-12.9-19.1-8.1C153.3,166.9,152,168,151.5,169.6z"/>
		<path class="st0" d="M131,130.1c-0.9,3.1,0.5,5.8,1.7,8.5c-4,1.1-7.9,1.2-12.7,0.2c3.4-7.1,1.9-14.6,2.2-22
			c0.2-2.1,0.4-4.2-0.3-6.3c0.1-6.9,1.2-13.8-1.1-20.5c-0.2-1.1-0.9-1.7-1.8-2.2c5-1.7,10.1-0.5,15.2-0.7c0.8,1,1.6,1.9,2.3,2.8
			c7,9.3,14,18.6,21,27.9c0.4-0.2,0.8-0.4,1.2-0.6c-1-10,2.4-20.1-2.3-30c4.6-0.2,8.8-0.4,13.3,0.3c-4.1,6.9-2.4,14-2.6,20.9
			c-0.2,10.2-0.5,20.5-0.7,30.7c-6.9,1.4-12.8,0.9-16.5-6.3c-1.7-3.4-4.4-6.3-6.8-9.2c-4-4.9-7.2-10.6-12.5-15.8
			c0,6.4-0.7,11.9,0.4,17.3C130,126.6,130.7,128.4,131,130.1z"/>
		<path class="st0" d="M242.5,179.9c2.1-7.5,7.5-14.2,5-23.1c5.5-1,11.2-0.3,16.9-0.2c2.3,0,2.2,2.3,2.7,3.7
			c4.1,11.6,8.2,23.2,12.2,34.8c1.6,4.6,3.5,8.9,7.1,14c-6-0.1-11.2-0.2-16.4-0.4c-2.4-0.1-2.3-2.4-2.9-4.1
			c-3.9-10.5-3.9-10.5-14.2-10.5c-6.6,0-10.6,5.9-8.3,12.4c0.2,0.7,1.1,1.3,0.7,2.3c-2.7,0.1-5.5,0.2-8.3,0.3
			c-1.1-0.1-2.2-0.2-3.2-0.2c-1-1.7,0.2-3.2,0.7-4.7c2.2-6.7,4.4-13.4,6.6-20C241.5,182.8,242,181.3,242.5,179.9z M254.9,171
			c-2.1,5-3.9,9.2-4.6,14c3.3,0.7,6.2,0.7,10-0.2C257.8,180.6,257.1,176,254.9,171z"/>
		<path class="st0" d="M235.1,139.7c-2.8-0.1-4.7-0.1-6.7-0.2c-1.8,0-3.6-0.1-6.3-0.1c2.4-7.2,4.6-13.8,6.8-20.3
			c2.6-7.5,5.1-15.1,7.8-22.6c1.1-3.1,1.8-6-1.9-9.9c7.1,0.2,12.6,0.3,18.1,0.4c2.5,0,2.7,1.9,3.3,3.7c4.8,13.6,9.8,27.2,14.6,40.8
			c0.9,2.7,2.7,4.9,4.8,8.2c-6.1-0.1-11.3-0.3-16.5-0.4c-1.4,0-2-0.9-2.4-2.2c-0.3-1.1-0.7-2.2-1.1-3.3c-3.5-9.5-3.5-9.5-13.7-9.3
			c-6.4,0.1-10.4,6.1-8.3,12.3C234,137.4,234.3,138,235.1,139.7z M249,115.8c-0.7-4.7-2.2-8.7-6.1-11.8c-0.6,1.4-1.3,2.5-1.3,3.5
			c0,2.8-4.7,5-1.9,7.6C241.9,117.2,245.6,116,249,115.8z"/>
		<path class="st0" d="M216.7,87.3c1.1,3.2,2.2,6.4,3.6,10.6c-11-4.4-20.8-6.6-28.1,4c-4.7,6.8-4,18.7,1.6,24.8
			c7.7,8.3,16.8,6,25.7,2c-0.4,9.2-2.3,11.1-11,11.5c-3.6,0.2-7.3,0.4-10.9,0.6c-2-0.6-4.1-1.1-6.1-1.7
			c-13.6-5.8-19.8-15.9-18.2-29.8c1.4-11.8,10.7-21.4,23.5-23c5.6-0.7,11.3,0,16.9,0l0.3,0.3l-0.1,0C214.9,86.8,215.8,87,216.7,87.3
			z"/>
		<path class="st0" d="M109.6,109.9c0,10-1.9,20.1,2.6,29.9c-6.3-0.1-12.8-0.3-19.1-0.4c4.1-16.8,0.5-33.8,1.6-50.7
			c0.2-2.5-1.5-5.2-2.5-8.2c6.9,0.8,13.6-1.3,20.3,0.7c-0.8,0.7-1.5,1.5-1.6,2.6c-2.5,7.2-0.7,14.6-1.2,21.9
			C109.7,107,109.6,108.5,109.6,109.9z"/>
		<path class="st0" d="M112.2,150c5.3-0.1,10.1-0.3,16.3-0.4c-4.9,6.2-9.1,11.6-13.3,17c-5.2,6.5-5.3,6.6-0.3,13.1
			c6.4,8.5,12.2,17.4,19.3,25.4c-4.5,5.2-9.3,6.1-14.9,2.6c-3.3-2-5.8-4.9-8.1-8c-4.1-5.4-8.3-10.8-12.3-16.3
			c-2.2-3-2.9-6.2-0.1-9.4c3.3-3.9,6.5-8,9.6-12.1C110.8,158.5,113.6,155,112.2,150z"/>
		<path class="st0" d="M78.9,150c5.5-0.9,10.9-0.4,17.8-0.4c-0.2,9.9-0.5,19.5-0.6,29.1c-0.1,8.5-0.3,17,0,25.4
			c0.2,4.3-1.3,5.6-5.4,5.3c-3.9-0.3-7.8-0.2-11.9-0.3C82,200.8,82.1,158.1,78.9,150z"/>
		<path class="st2" d="M216.7,87.3c-0.9-0.2-1.8-0.4-2.6-0.7c0,0,0.1,0,0.1,0s-0.3-0.3-0.3-0.3c0.9-2.6,3.4-3.4,5.7-4.7
			c-0.9-3.3,0.6-6.1,2.4-8.7c-4.4-2.8-10.8-4.9-15.3-2.8c-9.9,4.6-15.3-0.1-20-7.9c-1.2-2-2.6-3.8-4.1-5.6c-2.1-2.5-3.7-5.4-6.5-7.4
			c-3.1,2.5-4.7,5.4-5.5,8.9c-1.5,6.1-4.5,10.8-11.2,12.5c-3.8,1-7.4,2.9-11.1,4.4c-2.9,1.2-5,3-6.5,5.8c-1.6,3.1-3.6,6-5.4,8.9
			c-0.8-1-1.6-1.9-2.3-2.9c0.3-0.4,0.8-0.7,1-1.1c4.1-9.3,11.3-15,21.1-17.1c7.6-1.7,10.6-7.1,12.6-13.7c0.3-0.9,0.5-2,0.9-2.8
			c4.2-8.4,6.4-8.7,12.1-1.5c3.2,4,6.3,8.1,9.4,12.2c5,6.7,5.2,7.4,13,4.6c7.2-2.6,13.4,0.7,19.9,1.7c3.1,0.5,2.5,2.9,0.9,4.9
			c-1.9,2.4-3.6,4.7-1.7,8c1.1,1.9-0.6,3-2.3,3.6C219.5,86.4,218.1,86.8,216.7,87.3z"/>
		<path class="st2" d="M233.6,208.9c1.1,0.1,2.2,0.2,3.2,0.2c0.1,0.7,0,1.5,0.4,1.9c6.6,8.2,0.5,14.4-3.4,20.8
			c-1.4,2.3-3.8,3.2-6.5,2.6c-4.2-0.9-8.6-1.7-12-4.5c-11.8-9.6-25.7-15.6-38.7-23.2c1.2-0.7,2.4-1.4,3.7-2.1c1,1.1,2.2,1.9,3.5,2.7
			c11.4,6.6,23.5,12.1,34,20.4c2.7,2.1,5.9,2.9,9.2,3.5c1.6,0.3,3,0,4.2-1c4.7-3.8,6.2-11.3,3.4-16.7
			C233.9,212.1,232.8,210.7,233.6,208.9z"/>
		<path class="st2" d="M191.6,139.1c2,0.6,4.1,1.1,6.1,1.7c1.5,0.7,3.3,1.3,3.8,3c2,5.7,6.4,4.9,10.6,3.8c8.3-2.2,8.2-2.3,7.7,6.3
			c0,0.6,0.2,1.3,0.3,2c0.7,0.2,1.4,0.7,1.9,0.6c8-1.6,10.8,4.9,14.8,9.5c0.8,0.9,1.2,2.1,0.8,3.2c-1.9,5.2,0.9,8.1,4.8,10.6
			c-0.5,1.4-1,2.9-1.6,4.3c-3.5-4.6-8.5-8.3-7-15.4c0.6-2.7-5.6-8.5-8.4-8.9c-8.4-1.3-8.4-1.3-9.5-9.9c-3.2,0.5-6.5,0.8-9.7,1.5
			c-2.5,0.6-4.6,0-5.4-2.2c-1.4-3.7-3.7-5.4-7.4-4.7C192.9,142.5,192.2,140.8,191.6,139.1z"/>
		<path class="st2" d="M131,130.1c-0.3-1.7-1-3.5-0.1-5.3c3.5,2.8,6.2,6.2,8,10.5c3.2,7.4,7.1,14.5,10.7,21.7
			c-1.1,0.5-2.1,1.1-3.2,1.6c-2.9-8.5-7.5-16.3-11.4-24.4C134.3,132.6,133,130.8,131,130.1z"/>
		<path class="st2" d="M109.6,109.9c0-1.4,0-2.9,0.1-4.3c3.9,1.8,8.4,2.4,12,4.9c0.7,2.1,0.5,4.2,0.3,6.3c-2.8-1.2-3.3-4.9-6.2-6.1
			C113.8,109.9,111.8,109.5,109.6,109.9z"/>
		<path class="st1" d="M262,87.4c0.1-2.4,0.1-4.5,0.2-6.8c2.2,0.2,4.5-0.9,6.3,1.3c1.7,2.1-0.5,3.9-0.9,5.6
			C267.2,88.9,264.3,88.3,262,87.4z"/>
		<path class="st2" d="M110.9,83.7c0-1.2,0.7-1.9,1.6-2.6c2.5,1.8,2.8,5.9,6.4,6.7c0.9,0.5,1.6,1.2,1.8,2.2
			C115,91.6,113.1,87.4,110.9,83.7z"/>
		<path class="st1" d="M149.6,157c-3.6-7.2-7.4-14.3-10.7-21.7c-1.9-4.2-4.5-7.6-8-10.5c-1.1-5.4-0.4-10.8-0.4-17.3
			c5.3,5.3,8.5,10.9,12.5,15.8c2.4,3,5,5.9,6.8,9.2c3.7,7.2,9.6,7.7,16.5,6.3c0.2-10.2,0.5-20.4,0.7-30.7c0.2-6.9-1.6-14,2.6-20.9
			c-4.6-0.7-8.8-0.5-13.3-0.3c4.7,9.9,1.3,20.1,2.3,30c-0.4,0.2-0.8,0.4-1.2,0.6c-7-9.3-14-18.6-21-27.9c1.8-3,3.8-5.9,5.4-8.9
			c1.5-2.8,3.7-4.6,6.5-5.8c3.7-1.5,7.3-3.4,11.1-4.4c6.7-1.7,9.7-6.4,11.2-12.5c0.9-3.5,2.4-6.4,5.5-8.9c2.7,2,4.4,4.9,6.5,7.4
			c1.5,1.8,2.9,3.6,4.1,5.6c4.7,7.8,10.1,12.4,20,7.9c4.5-2.1,10.9-0.1,15.3,2.8c-1.8,2.6-3.3,5.3-2.4,8.7c-2.3,1.3-4.8,2.1-5.7,4.7
			c-5.7,0-11.4-0.7-16.9,0c-12.8,1.6-22.1,11.2-23.5,23c-1.6,13.9,4.6,24,18.2,29.8c0.6,1.7,1.3,3.4,2.1,5.4c3.8-0.7,6.1,1,7.4,4.7
			c0.8,2.2,2.8,2.8,5.4,2.2c3.2-0.7,6.4-1,9.7-1.5c1.1,8.6,1.1,8.6,9.5,9.9c2.8,0.4,9,6.2,8.4,8.9c-1.6,7.1,3.5,10.9,7,15.4
			c-2.2,6.7-4.5,13.3-6.6,20c-0.5,1.5-1.7,2.9-0.7,4.7c-0.8,1.8,0.3,3.3,1,4.7c2.8,5.4,1.3,12.9-3.4,16.7c-1.2,1-2.6,1.3-4.2,1
			c-3.3-0.6-6.5-1.4-9.2-3.5c-10.4-8.3-22.6-13.8-34-20.4c-1.3-0.8-2.5-1.6-3.5-2.7c9.6-8.2,11.9-18.8,9.2-30.6
			c-3.1-13.1-18.1-21.5-32.6-18.6C154.4,156,152,156.5,149.6,157z M195.3,156.7c1.3,17.6,2.4,34.7-0.2,51.6c8,0.2,16.7,0.6,25.3,0.5
			c8.1-0.1,8.9-1.2,9.6-10.1c-6,1.6-12,2.2-18.8,1.2c1.6-14.5-2.4-29.1,2.3-43.7C207.1,156.4,200.7,156.6,195.3,156.7z"/>
		<path class="st1" d="M154.7,166.1c8.4-4.8,17.1-1.2,19.1,8.1c1.7,8.1,2.7,16.3-3.7,23.3c-2.1-2.3-5.2-4.4-6-7.1
			c-1.2-4.1-2.4-8.1-4.2-12.1C158,174.4,155.4,170.6,154.7,166.1z"/>
		<path class="st1" d="M166.7,199.8c-7.5,3.1-14.2,0.5-16.8-7c-2.7-7.9-3-15.8,1.5-23.3c1.2,1.8,2.2,3.6,3.3,5.4
			C159.7,182.8,159.7,193,166.7,199.8z"/>
		<path class="st2" d="M166.7,199.8c-7-6.8-7-17-11.9-24.9c-1.1-1.8-2.2-3.6-3.3-5.4c0.6-1.6,1.8-2.6,3.3-3.4
			c0.7,4.5,3.3,8.2,5.2,12.3c1.8,3.9,3,7.9,4.2,12.1c0.8,2.7,3.9,4.7,6,7.1C169.4,199,168.1,199.4,166.7,199.8z"/>
		<path class="st1" d="M110.9,83.7c2.2,3.7,4.1,7.8,9.7,6.3c2.3,6.7,1.2,13.6,1.1,20.5c-3.6-2.5-8.1-3.1-12-4.9
			C110.1,98.3,108.3,90.9,110.9,83.7z"/>
		<path class="st1" d="M254.9,171c2.2,5,2.8,9.6,5.4,13.8c-3.8,0.9-6.7,0.9-10,0.2C251,180.2,252.9,176.1,254.9,171z"/>
		<path class="st1" d="M249,115.8c-3.4,0.2-7.1,1.4-9.3-0.7c-2.8-2.6,1.9-4.8,1.9-7.6c0-1,0.8-2.1,1.3-3.5
			C246.8,107.1,248.3,111.1,249,115.8z"/>
		<path class="st1" d="M214.1,86.6c0,0-0.1,0-0.1,0C214,86.6,214.1,86.6,214.1,86.6z"/>
		<path class="st0" d="M195.3,156.7c5.4-0.1,11.8-0.3,18.2-0.5c-4.7,14.6-0.8,29.2-2.3,43.7c6.8,1,12.8,0.4,18.8-1.2
			c-0.7,8.9-1.5,10-9.6,10.1c-8.6,0.1-17.3-0.3-25.3-0.5C197.8,191.4,196.6,174.3,195.3,156.7z"/>
	</g>
</g>
</svg>
